<svg width="20" height="20" viewBox="0 0 20 20" fill="none" xmlns="http://www.w3.org/2000/svg">
<path d="M13.2459 9.6275C13.1042 9.345 12.8159 9.16668 12.5001 9.16668H10.8334V0.83332C10.8334 0.37332 10.4609 0 10.0001 0C9.53923 0 9.16673 0.37332 9.16673 0.83332V9.16664H7.50005C7.18423 9.16664 6.89587 9.34496 6.75423 9.62746C6.61423 9.90996 6.64423 10.2475 6.83341 10.5L9.33341 13.8333C9.34423 13.8475 9.36091 13.8525 9.37259 13.8658C9.42759 13.9308 9.49259 13.9808 9.56509 14.0266C9.59509 14.0449 9.61841 14.0691 9.65091 14.0841C9.75759 14.1341 9.87423 14.1666 10.0001 14.1666C10.126 14.1666 10.2426 14.1341 10.3501 14.0841C10.3818 14.0691 10.4059 14.0449 10.4351 14.0266C10.5076 13.9808 10.5726 13.9308 10.6276 13.8658C10.6384 13.8525 10.6559 13.8475 10.6668 13.8333L13.1668 10.5C13.3567 10.2475 13.3867 9.91 13.2459 9.6275Z" fill="#333333"/>
<path d="M19.1667 12.5C18.7059 12.5 18.3334 12.8733 18.3334 13.3333V15.8333C18.3334 17.2116 17.2117 18.3333 15.8334 18.3333H4.16668C2.78836 18.3333 1.66668 17.2116 1.66668 15.8333V13.3333C1.66668 12.8733 1.29418 12.5 0.833359 12.5C0.3725 12.5 0 12.8733 0 13.3333V15.8333C0 18.1308 1.86918 20 4.16668 20H15.8334C18.1308 20 20 18.1308 20 15.8333V13.3333C20 12.8733 19.6275 12.5 19.1667 12.5Z" fill="#333333"/>
</svg>
