<svg width="38" height="40" viewBox="0 0 38 40" fill="none" xmlns="http://www.w3.org/2000/svg">
<path d="M36.6483 16.469L33.5655 16.0276C33.185 13.8176 32.3156 11.7205 31.0207 9.88965L32.8897 7.3931C33.096 7.12075 33.0695 6.73787 32.8276 6.49655L30.7448 4.41379C30.5035 4.1719 30.1206 4.14539 29.8483 4.35172L27.3517 6.22069C25.5208 4.92581 23.4238 4.05635 21.2138 3.67586L20.7724 0.593103C20.7243 0.252943 20.4332 5.20483e-05 20.0897 0H17.1517C16.8082 5.20483e-05 16.5171 0.252943 16.469 0.593103L16.0276 3.67586C13.8176 4.05635 11.7205 4.92581 9.88966 6.22069L7.3931 4.35172C7.12075 4.14539 6.73787 4.1719 6.49655 4.41379L4.41379 6.49655C4.1719 6.73787 4.14539 7.12075 4.35172 7.3931L6.22069 9.88965C4.92581 11.7205 4.05636 13.8176 3.67586 16.0276L0.593103 16.469C0.252943 16.5171 5.20483e-05 16.8082 0 17.1517V20.0897C5.20483e-05 20.4332 0.252943 20.7243 0.593103 20.7724L3.67586 21.2138C4.05636 23.4238 4.92581 25.5208 6.22069 27.3517L4.35172 29.8483C4.14539 30.1206 4.1719 30.5035 4.41379 30.7448L6.49655 32.8276C6.73787 33.0695 7.12075 33.096 7.3931 32.8897L9.82759 31.069L27.5103 31.1448H27.5172L29.8483 32.8897C30.1206 33.096 30.5035 33.0695 30.7448 32.8276L32.8276 30.7448C33.0695 30.5035 33.096 30.1206 32.8897 29.8483L31.0207 27.3517C32.3156 25.5208 33.185 23.4238 33.5655 21.2138L36.6483 20.7724C36.9884 20.7243 37.2413 20.4332 37.2414 20.0897V17.1517C37.2413 16.8082 36.9884 16.5171 36.6483 16.469ZM21.2966 27.8966L12.3793 25.9793C9.00691 23.1157 8.01366 18.3257 9.96938 14.3572C11.9251 10.3888 16.3288 8.25848 20.6541 9.18844C24.9795 10.1184 28.1185 13.8704 28.2703 18.292C28.4221 22.7136 25.5479 26.6721 21.2966 27.8966Z" fill="#FF6A00"/>
<path d="M37.2413 17.1517V20.0897C37.2412 20.4332 36.9884 20.7243 36.6482 20.7724L33.5654 21.2138C33.1849 23.4238 32.3155 25.5208 31.0206 27.3517L32.8896 29.8483C33.0959 30.1206 33.0694 30.5035 32.8275 30.7448L30.7447 32.8276C30.5034 33.0695 30.1205 33.096 29.8482 32.8897L27.5172 31.1448H27.5103L18.6206 31.1034V27.3241L21.2965 27.8966C25.9164 26.5619 28.85 22.0309 28.1769 17.2694C27.5039 12.5078 23.4295 8.96742 18.6206 8.96552V0H20.0896C20.4331 5.20483e-05 20.7242 0.252943 20.7723 0.593103L21.2137 3.67586C23.4237 4.05635 25.5208 4.92581 27.3516 6.22069L29.8482 4.35172C30.1205 4.14539 30.5034 4.1719 30.7447 4.41379L32.8275 6.49655C33.0694 6.73787 33.0959 7.12075 32.8896 7.3931L31.0206 9.88965C32.3155 11.7205 33.1849 13.8176 33.5654 16.0276L36.6482 16.469C36.9884 16.5171 37.2412 16.8082 37.2413 17.1517Z" fill="#FF6A00"/>
<path d="M6.20685 19.3104C5.82597 19.3104 5.5172 19.0016 5.5172 18.6207C5.49249 12.5317 9.68932 7.23801 15.6234 5.87313C15.9936 5.78886 16.3622 6.01961 16.4482 6.38937C16.5342 6.75913 16.3052 7.12886 15.9358 7.21657C10.6282 8.43894 6.87488 13.1742 6.89651 18.6207C6.89651 18.8036 6.82385 18.979 6.69451 19.1084C6.56518 19.2377 6.38976 19.3104 6.20685 19.3104Z" fill="white"/>
<path d="M18.6208 6.89652C19.0017 6.89652 19.3105 6.58775 19.3105 6.20687C19.3105 5.82598 19.0017 5.51721 18.6208 5.51721C18.2399 5.51721 17.9312 5.82598 17.9312 6.20687C17.9312 6.58775 18.2399 6.89652 18.6208 6.89652Z" fill="white"/>
<path d="M18.2249 40C19.2611 40.0002 20.2933 39.8719 21.298 39.6179C23.102 39.1985 24.7377 38.2451 25.9918 36.882C27.5376 34.8886 28.0119 32.2657 27.2621 29.8572L26.6359 27.5862L25.0738 29.3255C24.6926 29.765 24.1852 30.0763 23.6207 30.2172C23.4624 30.254 23.3005 30.2725 23.138 30.2724C22.5992 30.2782 22.0801 30.0707 21.6938 29.6951C21.281 29.2762 21.1138 28.6738 21.2518 28.102C21.3846 27.5889 21.6066 27.1031 21.9076 26.6669C22.1595 26.2879 22.3621 25.8784 22.5104 25.4482C22.9242 24.0565 22.5104 22.5696 21.2807 21.031C20.7948 20.4503 20.2724 19.9011 19.7166 19.3869C19.458 19.1365 19.2338 18.92 19.0145 18.6972L16.8966 16.5517L16.8186 19.5979C16.8138 19.7827 16.8021 19.9641 16.7821 20.1434C16.6613 21.2967 16.1114 22.3623 15.2414 23.1289L14.8042 23.5331C13.6403 24.5234 12.5985 25.6488 11.7007 26.8855C10.8493 28.1138 10.2247 29.4846 9.85658 30.9331C9.35433 33.0043 9.79003 35.1917 11.0476 36.9124C12.5255 38.8751 15.1414 40 18.2249 40Z" fill="#F0C419"/>
<path d="M18.2255 37.931C15.7973 37.931 13.7841 37.1076 12.7021 35.6717C11.8115 34.4497 11.5043 32.8975 11.8621 31.4283C11.9195 31.1887 12.1004 30.9979 12.3366 30.9278C12.5728 30.8577 12.8285 30.919 13.0073 31.0885C13.1861 31.258 13.2609 31.5101 13.2035 31.7497C12.9389 32.8186 13.1578 33.9498 13.8021 34.8428C14.6207 35.931 16.2345 36.5517 18.2255 36.5517C18.6064 36.5517 18.9152 36.8605 18.9152 37.2414C18.9152 37.6223 18.6064 37.931 18.2255 37.931Z" fill="#F29C1F"/>
</svg>
