<svg width="20" height="13" viewBox="0 0 20 13" fill="none" xmlns="http://www.w3.org/2000/svg">
<path d="M19.8729 5.98463C19.6942 5.74021 15.4371 0 9.99991 0C4.56275 0 0.305392 5.74021 0.126914 5.98439C-0.0423048 6.21627 -0.0423048 6.53076 0.126914 6.76264C0.305392 7.00705 4.56275 12.7473 9.99991 12.7473C15.4371 12.7473 19.6942 7.00701 19.8729 6.76283C20.0424 6.531 20.0424 6.21627 19.8729 5.98463ZM9.99991 11.4286C5.99486 11.4286 2.52606 7.61869 1.49922 6.37318C2.52473 5.12658 5.98627 1.31868 9.99991 1.31868C14.0048 1.31868 17.4733 5.1279 18.5006 6.37408C17.4751 7.62065 14.0136 11.4286 9.99991 11.4286Z" fill="#333333"/>
<path d="M10 2.4176C7.81868 2.4176 6.04395 4.19233 6.04395 6.37367C6.04395 8.555 7.81868 10.3297 10 10.3297C12.1813 10.3297 13.9561 8.555 13.9561 6.37367C13.9561 4.19233 12.1813 2.4176 10 2.4176ZM10 9.01102C8.54571 9.01102 7.36266 7.82793 7.36266 6.37367C7.36266 4.91941 8.54575 3.73632 10 3.73632C11.4543 3.73632 12.6374 4.91941 12.6374 6.37367C12.6374 7.82793 11.4543 9.01102 10 9.01102Z" fill="#333333"/>
</svg>
